<svg width="32" height="43" viewBox="0 0 32 43" fill="none" xmlns="http://www.w3.org/2000/svg">
<g clip-path="url(#clip0_0_491)">
<path d="M5.33333 0C2.39167 0 0 2.41035 0 5.375V37.625C0 40.5896 2.39167 43 5.33333 43H26.6667C29.6083 43 32 40.5896 32 37.625V13.4375H21.3333C19.8583 13.4375 18.6667 12.2365 18.6667 10.75V0H5.33333ZM21.3333 0V10.75H32L21.3333 0ZM18 19.4844V28.0592L20.5833 25.4557C21.3667 24.6662 22.6333 24.6662 23.4083 25.4557C24.1833 26.2451 24.1917 27.5217 23.4083 28.3027L17.4083 34.3496C16.625 35.1391 15.3583 35.1391 14.5833 34.3496L8.58333 28.3027C7.8 27.5133 7.8 26.2367 8.58333 25.4557C9.36667 24.6746 10.6333 24.6662 11.4083 25.4557L13.9917 28.0592V19.4844C13.9917 18.3674 14.8833 17.4688 15.9917 17.4688C17.1 17.4688 17.9917 18.3674 17.9917 19.4844H18Z" fill="#4FD1C5"/>
</g>
<defs>
<clipPath id="clip0_0_491">
<rect width="32" height="43" fill="white"/>
</clipPath>
</defs>
</svg>
