<svg width="31" height="30" viewBox="0 0 31 30" fill="none" xmlns="http://www.w3.org/2000/svg">
<path d="M25.9141 13.1253H17.4375C16.6667 13.1253 15.9275 12.829 15.3825 12.3015C14.8374 11.7741 14.5312 11.0587 14.5312 10.3128V2.10968C14.5312 2.04752 14.5057 1.98791 14.4603 1.94395C14.4149 1.9 14.3533 1.87531 14.2891 1.87531H8.71875C7.69104 1.87531 6.70541 2.27039 5.97871 2.97365C5.25201 3.67692 4.84375 4.63074 4.84375 5.6253V24.3753C4.84375 25.3699 5.25201 26.3237 5.97871 27.0269C6.70541 27.7302 7.69104 28.1253 8.71875 28.1253H22.2812C23.309 28.1253 24.2946 27.7302 25.0213 27.0269C25.748 26.3237 26.1562 25.3699 26.1562 24.3753V13.3597C26.1562 13.2975 26.1307 13.2379 26.0853 13.1939C26.0399 13.15 25.9783 13.1253 25.9141 13.1253Z" fill="#4FD1C5"/>
<path d="M25.3825 11.052L16.6752 2.62563C16.6583 2.60934 16.6368 2.59826 16.6133 2.59378C16.5899 2.5893 16.5656 2.59162 16.5436 2.60045C16.5215 2.60927 16.5026 2.62422 16.4893 2.6434C16.476 2.66258 16.4689 2.68514 16.4688 2.70825V10.3143C16.4688 10.5629 16.5708 10.8014 16.7525 10.9772C16.9342 11.153 17.1806 11.2518 17.4375 11.2518H25.2971C25.321 11.2517 25.3443 11.2448 25.3641 11.2319C25.3839 11.219 25.3994 11.2007 25.4085 11.1794C25.4176 11.158 25.42 11.1346 25.4154 11.1119C25.4107 11.0892 25.3993 11.0684 25.3825 11.052V11.052Z" fill="#4FD1C5"/>
</svg>
