<svg width="52" height="47" viewBox="0 0 52 47" fill="none" xmlns="http://www.w3.org/2000/svg">
<g clip-path="url(#clip0_0_381)">
<path d="M26 3.375C18.7056 3.375 12.8646 6.68125 8.6125 10.6164C4.3875 14.5156 1.56181 19.1875 0.225696 22.3949C-0.0722209 23.1047 -0.0722209 23.8953 0.225696 24.6051C1.56181 27.8125 4.3875 32.4844 8.6125 36.3836C12.8646 40.3187 18.7056 43.625 26 43.625C33.2944 43.625 39.1354 40.3187 43.3875 36.3836C47.6125 32.4754 50.4382 27.8125 51.7833 24.6051C52.0812 23.8953 52.0812 23.1047 51.7833 22.3949C50.4382 19.1875 47.6125 14.5156 43.3875 10.6164C39.1354 6.68125 33.2944 3.375 26 3.375ZM13 23.5C13 20.0688 14.3696 16.7781 16.8076 14.3518C19.2456 11.9256 22.5522 10.5625 26 10.5625C29.4478 10.5625 32.7544 11.9256 35.1924 14.3518C37.6304 16.7781 39 20.0688 39 23.5C39 26.9312 37.6304 30.2219 35.1924 32.6482C32.7544 35.0744 29.4478 36.4375 26 36.4375C22.5522 36.4375 19.2456 35.0744 16.8076 32.6482C14.3696 30.2219 13 26.9312 13 23.5ZM26 17.75C26 20.9215 23.409 23.5 20.2222 23.5C19.5813 23.5 18.9674 23.3922 18.3896 23.2035C17.8931 23.0418 17.3153 23.3473 17.3333 23.8684C17.3604 24.4883 17.4507 25.1082 17.6222 25.7281C18.859 30.3281 23.6167 33.0594 28.2389 31.8285C32.8611 30.5977 35.6056 25.8629 34.3688 21.2629C33.3667 17.5344 30.0535 15.0277 26.3701 14.875C25.8465 14.857 25.5396 15.423 25.7021 15.9262C25.8917 16.5012 26 17.1121 26 17.75Z" fill="#4FD1C5"/>
</g>
<defs>
<clipPath id="clip0_0_381">
<rect width="52" height="46" fill="white" transform="translate(0 0.5)"/>
</clipPath>
</defs>
</svg>
